# xmcd CD database file
#
# Track frame offsets:
#	150
#	11258
#	24134
#	33724
#	46927
#	59630
#	70666
#	90057
#	107071
#	115518
#	126540
#	148745
#	164187
#	181179
#	193735
#	217505
#	232158
#	249982
#	263017
#	275103
#
# Disc length: 4000 seconds
#
# Revision: 1
# Processed by: cddbd v1.5.2PL0 Copyright (c) Steve Scherf et al.
# Submitted via: CDex 1.50
#
DISCID=160f9e14
DTITLE=Dolly Parton - All I Can Do - New Harvest...First Gathering
DYEAR=2007
DGENRE=Country
TTITLE0=All I Can Do
TTITLE1=The Fire That Keeps You Warm
TTITLE2=When The Sun Goes Down Tomorrow
TTITLE3=I'm A Drifter
TTITLE4=Falling Out Of Love With You
TTITLE5=Shattered Image
TTITLE6=Boulder To Birmingham
TTITLE7=Preacher Tom
TTITLE8=Life's Like Poetry
TTITLE9=Hey, Lucky Lady
TTITLE10=Light Of A Clear Blue Morning
TTITLE11=Applejack
TTITLE12=My Girl (My Love)
TTITLE13=Holdin' On To You
TTITLE14=You Are
TTITLE15=How Does It Feel
TTITLE16=Where Beauty Lives In Memory
TTITLE17=(Your Love Has Lifted Me) Higher And Higher
TTITLE18=Getting In My Way
TTITLE19=There
EXTD=YEAR: 2007
EXTT0=
EXTT1=
EXTT2=
EXTT3=
EXTT4=
EXTT5=
EXTT6=
EXTT7=
EXTT8=
EXTT9=
EXTT10=
EXTT11=
EXTT12=
EXTT13=
EXTT14=
EXTT15=
EXTT16=
EXTT17=
EXTT18=
EXTT19=
PLAYORDER=
